<svg width="82" height="21" viewBox="0 0 82 21" xmlns="http://www.w3.org/2000/svg">
    <g fill="none" fill-rule="evenodd">
        <path fill="#D4242A" d="M23.673 0h57.453v20H23.673z"/>
        <text font-family="TitilliumWeb-Bold, Titillium Web" font-size="11" font-weight="bold" fill="#FFF" transform="translate(1)">
                    <tspan x="30.381" y="14">Fast Pace</tspan>
                </text>
        <g fill-rule="nonzero" stroke="#FFF" stroke-linejoin="round">
            <path d="M26.966 14.475c.005-.03 1.78-3.6 0-8.033-.74-1.844-3.312-5.157-6.635-5.537-2.782-.318-4.17.838-6.026 2.29-1.497 1.169-3.711.252-3.732.245.017.03 1.115 1.972 2.054 2.435.445.237.915.427 1.403.567.487.14-3.523-.416-5.84 1.316C5.85 9.51 5.13 9.878 3.93 9.911A8.194 8.194 0 0 1 1 9.148a13.814 13.814 0 0 0 4.323 4.203 9.2 9.2 0 0 0 4.553 1.346 4.734 4.734 0 0 1-1.633 1.04 5.588 5.588 0 0 1-2.157.113l1.875 1.07c2.264 1.201 6.154 2.986 9.322 2.986 6.654 0 9.57-4.717 9.683-5.43z" fill="#F60"/>
            <path d="M27.727 11.083c.021-.444.031-.882.031-1.314 0-.836-.709-2.677-2.256-3.502-.199-.106-.769-.305-.982-.385a3.675 3.675 0 0 0-.7-.168c-1.365-.187-2.667.621-3.334 1.188-1.493 1.35-2.3 2.452-3.98 2.802a8.012 8.012 0 0 1-2.196.065 6.787 6.787 0 0 0 2.128 2.068c.672.412 1.445.64 2.24.662-.23.224-.506.4-.81.513a2.75 2.75 0 0 1-1.061.055s3.158 1.998 5.508 1.995a9.749 9.749 0 0 0 2.403-.288 4 4 0 0 0 3.01-3.69z" stroke-width=".893" fill="#FFA511"/>
        </g>
    </g>
</svg>
