<svg width="111" height="22" viewBox="0 0 111 22" xmlns="http://www.w3.org/2000/svg">
    <g fill="none" fill-rule="evenodd">
        <path fill="#9DD7FF" d="M2 2h108v20H2z"/>
        <text font-family="TitilliumWeb-Bold, Titillium Web" font-size="11" font-weight="bold" fill="#092043" transform="translate(2 2)">
                        <tspan x="4" y="14">Favors Frontrunners</tspan>
                    </text>
        <g fill="#FFF">
            <path d="M80.091 4.302c-.545.754-.692 1.707-1.081 2.548-.428.926-1.461 1.818-2.521 1.519-.695-.196-1.116-.84-1.31-1.475a6.706 6.706 0 0 1-.154-.646c-.144.17-.268.355-.369.556-.286.572-.579 1.387-1.228 1.304-.434-.056-.671-.527-.734-.947l-.02-.159-.032-.322c-.03-.267-.074-.53-.22-.754a.87.87 0 0 0-.15-.173 3.4 3.4 0 0 1-.758-.987c-.03.32-.13.639-.311.943-.158.265-.572.577-1.38.595-.43.01-.839-.076-1.098-.19a1.211 1.211 0 0 1-.5-.394c-.482-.612-.589-1.264-1.384-1.839a.718.718 0 0 0-.393-.14 1.22 1.22 0 0 0-.512.08c-.055.021-.121-.005-.192-.069-.423.284-1.003.466-1.382.16-.378-.305-.4-.999-.907-1.034a.773.773 0 0 0-.37.088c-.808.371-1.276 1.164-1.457 1.973a3.24 3.24 0 0 0-.038.192c-.147.874-.029 1.764-.038 2.648-.003.237-.022.491-.186.676-.439.497-1.32.038-1.747-.467a7.32 7.32 0 0 1-1.439-2.66c-.527.063-.626.697-.886 1.116-.432.697-1.678.808-2.252.2-.221-.234-.334-.524-.424-.826l-.13-.455c-.09-.302-.2-.593-.42-.829-.416-.447-1.138-.579-1.776-.477-.637.101-1.212.399-1.772.691-1.011.527-2.079 1.108-2.59 2.056-.307.572-.622 1.387-1.32 1.304-.466-.056-.721-.527-.789-.947-.045-.277-.049-.57-.118-.84-.128.208-.346.398-.743.522-.87.274-2.187.065-2.81-.314-.622-.379-.735-.865-.83-1.327l-.249-1.23c-.03-.153-.066-.313-.254-.443-.187-.13-.577-.221-.907-.163a1.07 1.07 0 0 0-.439.185c-.219.15-.383.315-.484.486-.086.146-.128.298-.269.436-.14.138-.408.264-.755.284-.516.03-.875-.163-1.233-.356-.365-.195-.727-.391-1.248-.354-.168.013-.32.05-.461.092-1.166.343-1.73.954-2.062 1.545-.331.59-.506 1.21-1.166 1.747a1.786 1.786 0 0 1-.732.368c-.466.114-1.043.085-1.574.053-.393-.024-.805-.05-1.125-.151-.52-.163-.655-.466-.751-.74-.256-.73-.512-1.46-.55-2.198-.016-.3-.019-.628-.47-.856a.977.977 0 0 0-.512-.103.632.632 0 0 0-.393.182c-.795.741-.902 1.58-1.383 2.37-.109.178-.242.36-.501.506-.26.147-.669.257-1.097.245-.809-.022-1.222-.424-1.38-.766a3.542 3.542 0 0 1-.32-1.311c-.14.124-.298.23-.478.313-.496.228-1.189.216-1.569-.132-.229-.21-.317-.51-.563-.707-.44-.353-1.169-.235-1.735-.038a7.918 7.918 0 0 0-2.478 1.389c-.423.355-.804.757-1.318 1.018-.515.26-1.223.343-1.701.04-.27-.173-.474-.463-.815-.484-.292-.018-.518.169-.74.356-.242.203-.478.405-.786.348a.893.893 0 0 1-.36-.182c-.246-.18-.48-.374-.71-.573l-.46-.399c-.614-.53-1.245-1.033-2.06-1.298-.437.513-.299 1.206-.417 1.825-.15.78-.72 1.457-1.309 2.079a27.818 27.818 0 0 1-2.643 2.448c-.572-.289-.828-.876-.859-1.429-.03-.553.12-1.1.161-1.653.046-.605-.039-1.21-.022-1.816a5.88 5.88 0 0 1 .066-.725c.15-1.004.538-1.984.956-2.94.234-.535.496-1.087 1-1.475C2.753.545 3.58.384 4.373.289 5.881.11 7.411.106 8.934.134c3.715.07 8.991-.287 12.669.155.417.05.742.168.898.351.228-.159.513-.3.871-.406 1.028-.307 2.413-.268 3.621-.13l.602.075 1.199.162c.6.078 1.205.141 1.83.156.99.023 1.972-.079 2.95-.181C34.734.195 35.89.074 37.05.162c.527.04 1.044.123 1.58.113.58-.011 1.119-.132 1.692-.173 1.482-.106 2.864.325 3.97.763.2.08.4.161.58.249.061-.079.133-.151.213-.217C45.748.36 46.764.5 47.647.602c1.284.15 2.59.148 3.873-.005.984-.118 1.988-.322 2.955-.12.588.123 1.125.39 1.7.56 1.598.468 3.269.137 4.935-.238l.666-.15c.444-.099.887-.194 1.327-.27 1.596-.277 3.23-.306 4.848-.24 2.883.117 5.76.536 8.653.386C77.643.472 78.599.137 79.63.064a28.953 28.953 0 0 1 4.444.047c.533.045 1.093.114 1.52.407.19.131.337.296.45.482.29-.062.58-.13.872-.2l.62-.15c.412-.1.824-.195 1.233-.271 1.485-.277 3.004-.306 4.51-.24 2.682.117 5.359.536 8.05.386.966-.053 1.855-.388 2.815-.461a25.06 25.06 0 0 1 4.134.047c.496.045 1.017.114 1.413.407.538.398.712 1.113.712 1.77 0 .545-.095 1.092-.082 1.635.002.11.009.22.022.331.046.388.164.783.287 1.176l.123.392c.217.709.38 1.4.09 2.016-.018.36-.037.72-.01 1.08.042.553.193 1.1.162 1.653-.031.553-.287 1.14-.86 1.429a27.818 27.818 0 0 1-2.642-2.448c-.59-.622-1.159-1.299-1.309-2.079-.118-.619.02-1.311-.416-1.825-.972.316-1.681.97-2.411 1.603-.47.76-1.294 1.373-2.136 1.118-.42-.128-.733-.445-.95-.826-.148.101-.28.238-.435.336-.478.304-1.186.22-1.7-.04-.515-.26-.896-.662-1.319-1.017a7.918 7.918 0 0 0-2.478-1.39c-.566-.196-1.294-.313-1.735.04-.246.196-.334.496-.563.706-.38.348-1.073.36-1.569.133-.496-.228-.826-.64-1.076-1.061-.248-.421-.438-.868-.751-1.26-.12-.148-.265-.293-.468-.355a.948.948 0 0 0-.187-.035 3.27 3.27 0 0 0-.593 1.339 3.456 3.456 0 0 0-.035.192c-.137.874-.027 1.764-.036 2.648-.002.237-.02.491-.172.676-.409.497-1.229.038-1.625-.467a7.505 7.505 0 0 1-1.34-2.66c-.49.063-.581.697-.823 1.116-.402.697-1.561.808-2.096.2-.514-.585-.396-1.521-.905-2.11-.08-.092-.171-.17-.271-.236z"/>
            <path d="M98.503 1.866c.734-.186 1.723-.162 2.587-.078.863.083-.875 2.307-.934 2.354-.568.45-.644.958-.988 1.437a.884.884 0 0 1-.358.308c-.185.089-.478.155-.784.148-.577-.013-.873-.257-.986-.465-.284-.523-.29-1.101-.107-1.63.166-.475.09-.947.468-1.416.202-.252.513-.508 1.102-.658z"/>
        </g>
    </g>
</svg>
