<svg width="14" height="14" viewBox="0 0 14 14" xmlns="http://www.w3.org/2000/svg">
    <defs>
        <clipPath id="xu1vzzphca">
            <path d="M1200 0v5972H0V0h1200z"/>
        </clipPath>
        <clipPath id="qqwow7z8cb">
            <path d="M6.105.212c.133-.283.598-.283.731 0L8.62 3.99l3.979.604c.326.05.457.446.228.68l-2.89 2.947.683 4.167a.404.404 0 0 1-.595.417l-3.553-1.954-3.554 1.954a.404.404 0 0 1-.595-.417l.684-4.167-2.89-2.948a.402.402 0 0 1 .228-.679l3.978-.604z"/>
        </clipPath>
    </defs>
    <g clip-path="url(#xu1vzzphca)" transform="translate(-815 -3868)">
        <g clip-path="url(#qqwow7z8cb)" transform="translate(815.176 3868.571)">
            <path fill="#FFC106" d="M0 0h12.941v12.857H0V0z"/>
        </g>
    </g>
</svg>
